<svg width="512" height="512" viewBox="0 0 512 512" fill="none" xmlns="http://www.w3.org/2000/svg">
<g clip-path="url(#clip0_4_5)">
<rect width="512" height="512" fill="#F5D352"/>
<path fill-rule="evenodd" clip-rule="evenodd" d="M297.899 226.624C301.486 238.573 307.386 250.052 315.506 259.888C327.306 274.182 341.72 282.493 355.867 284.586C355.034 289.603 354.537 294.749 354.415 299.964C353.781 326.899 363.285 348.948 378.004 359.576C375.126 370.527 373.961 382.293 374.929 394.096C375.095 396.121 375.321 398.109 375.604 400.057C357.748 396.88 337.509 401.755 321.053 414.891C293.338 437.015 286.852 474.195 306.566 497.936C326.28 521.676 364.729 522.987 392.445 500.863C408.713 487.877 417.666 469.703 418.301 452.105C423.434 452.688 428.797 452.224 434.261 450.588C463.747 441.758 484.988 402.149 481.706 362.119C479.683 337.448 468.817 318.376 453.874 309.438C455.944 301.469 457.167 293.047 457.369 284.436C458.27 246.138 438.677 217.718 412.734 217.962C411.667 198.318 404.334 177.978 391.129 161.983C370.678 137.209 342.376 130.41 321.221 142.798C312.073 121.348 291.787 106.473 267.09 105.983C245.901 105.563 226.23 115.826 213.112 132.024C198.359 111.119 168.864 106.616 140.471 123.149C120.438 134.813 105.418 154.35 98.4671 175.112C71.9647 173.331 44.2404 194.087 31.9428 227.364C20.5081 258.306 25.8031 290.896 43.1613 309.595C33.3592 322.436 28.6917 340.499 31.7957 359.366C37.1989 392.209 64.1048 415.052 91.8917 410.387C119.679 405.722 137.824 375.316 132.421 342.473C130.269 329.394 124.707 317.9 117.038 309.099C127.262 300.114 135.884 287.705 141.402 272.775C144.04 265.637 145.787 258.411 146.702 251.288C156.259 250.471 166.366 247.259 176.338 241.453C188.548 234.343 198.897 224.308 206.69 212.854C217.156 229.402 235.036 240.32 256.135 240.738C271.493 241.043 286.053 235.736 297.899 226.624Z" fill="#763030"/>
<path d="M315.506 259.888L311.782 263.099L315.506 259.888ZM297.899 226.624L302.609 225.259L300.493 218.212L294.87 222.537L297.899 226.624ZM355.867 284.586L360.73 285.576L361.6 280.336L356.432 279.571L355.867 284.586ZM354.415 299.964L359.346 300.232L359.346 300.232L354.415 299.964ZM378.004 359.576L382.769 361.027L383.679 357.565L380.762 355.458L378.004 359.576ZM374.929 394.096L379.844 393.815L374.929 394.096ZM375.604 400.057L374.899 405.048L381.464 406.216L380.482 399.452L375.604 400.057ZM321.053 414.891L317.957 410.857L321.053 414.891ZM306.566 497.936L310.28 494.713L310.28 494.713L306.566 497.936ZM392.445 500.863L395.541 504.897L392.445 500.863ZM418.301 452.105L418.703 447.069L413.562 446.485L413.371 451.772L418.301 452.105ZM434.261 450.588L435.767 455.455L434.261 450.588ZM481.706 362.119L486.621 361.839L481.706 362.119ZM453.874 309.438L449.105 308.001L448.122 311.787L451.484 313.798L453.874 309.438ZM457.369 284.436L462.301 284.704L457.369 284.436ZM412.734 217.962L407.809 218.099L408.08 223.074L412.922 223.029L412.734 217.962ZM391.129 161.983L387.406 165.194L387.406 165.194L391.129 161.983ZM321.221 142.798L316.712 144.718L318.972 150.019L323.756 147.218L321.221 142.798ZM267.09 105.983L267.137 111.049L267.09 105.983ZM213.112 132.024L209.147 134.919L212.931 140.281L216.941 135.33L213.112 132.024ZM140.471 123.149L137.946 118.724L137.946 118.724L140.471 123.149ZM98.4671 175.112L98.2868 180.168L101.954 180.414L103.137 176.882L98.4671 175.112ZM31.9428 227.364L36.561 229.28L31.9428 227.364ZM43.1613 309.595L47.0764 312.792L49.6797 309.381L46.6842 306.155L43.1613 309.595ZM31.7957 359.366L26.9326 360.07L31.7957 359.366ZM91.8917 410.387L92.8235 415.388L92.8236 415.388L91.8917 410.387ZM132.421 342.473L137.284 341.769L132.421 342.473ZM117.038 309.099L113.769 305.209L110.006 308.516L113.405 312.417L117.038 309.099ZM141.402 272.775L136.783 270.859L141.402 272.775ZM146.702 251.288L146.152 246.239L142.314 246.568L141.811 250.484L146.702 251.288ZM176.338 241.453L178.863 245.878L176.338 241.453ZM206.69 212.854L210.804 210.181L206.76 203.788L202.621 209.872L206.69 212.854ZM256.135 240.738L256.183 245.804L256.135 240.738ZM319.23 256.677C311.589 247.421 306.008 236.582 302.609 225.259L293.189 227.988C296.965 240.565 303.184 252.683 311.782 263.099L319.23 256.677ZM356.432 279.571C343.671 277.683 330.336 270.131 319.23 256.677L311.782 263.099C324.277 278.234 339.769 287.302 355.302 289.6L356.432 279.571ZM359.346 300.232C359.463 295.266 359.936 290.361 360.73 285.576L351.003 283.595C350.132 288.845 349.612 294.232 349.483 299.695L359.346 300.232ZM380.762 355.458C367.887 346.163 358.738 326.084 359.346 300.232L349.484 299.695C348.824 327.713 358.682 351.733 375.247 363.693L380.762 355.458ZM379.844 393.815C378.927 382.63 380.029 371.449 382.769 361.027L373.24 358.124C370.222 369.605 368.996 381.956 370.014 394.376L379.844 393.815ZM380.482 399.452C380.215 397.614 380.002 395.734 379.844 393.815L370.014 394.376C370.189 396.509 370.427 398.605 370.725 400.662L380.482 399.452ZM324.15 418.925C339.598 406.593 358.474 402.126 374.899 405.048L376.309 395.065C357.023 391.634 335.42 396.916 317.957 410.857L324.15 418.925ZM310.28 494.713C292.943 473.835 297.927 439.857 324.15 418.925L317.957 410.857C288.75 434.172 280.761 474.555 302.852 501.159L310.28 494.713ZM389.348 496.829C363.083 517.795 327.778 515.784 310.28 494.713L302.852 501.159C324.783 527.569 366.375 528.179 395.541 504.897L389.348 496.829ZM413.371 451.772C412.795 467.765 404.617 484.641 389.348 496.829L395.541 504.897C412.808 491.114 422.538 471.642 423.23 452.438L413.371 451.772ZM432.755 445.72C427.878 447.181 423.162 447.576 418.703 447.069L417.898 457.14C423.706 457.801 429.717 457.267 435.767 455.455L432.755 445.72ZM476.791 362.399C478.348 381.394 474.078 400.327 465.935 415.512C457.766 430.744 445.956 441.767 432.755 445.72L435.767 455.455C452.052 450.578 465.606 437.382 474.608 420.595C483.636 403.76 488.346 382.874 486.621 361.839L476.791 362.399ZM451.484 313.798C464.606 321.646 474.865 338.914 476.791 362.399L486.621 361.839C484.501 335.982 473.027 315.105 456.263 305.079L451.484 313.798ZM452.438 284.168C452.245 292.37 451.08 300.4 449.105 308.001L458.642 310.876C460.808 302.539 462.088 293.725 462.301 284.704L452.438 284.168ZM412.922 223.029C423.93 222.925 433.842 228.841 441.095 239.556C448.391 250.336 452.868 265.881 452.438 284.168L462.301 284.704C462.771 264.694 457.903 246.879 449.142 233.936C440.337 220.928 427.482 212.756 412.547 212.896L412.922 223.029ZM387.406 165.194C399.845 180.263 406.799 199.503 407.809 218.099L417.659 217.826C416.535 197.134 408.822 175.693 394.853 158.772L387.406 165.194ZM323.756 147.218C342.385 136.309 368.13 141.845 387.406 165.194L394.853 158.772C373.225 132.574 342.366 124.512 318.685 138.379L323.756 147.218ZM267.137 111.049C289.844 111.499 308.352 125.117 316.712 144.718L325.73 140.879C315.793 117.579 293.73 101.447 267.043 100.918L267.137 111.049ZM216.941 135.33C229.234 120.15 247.571 110.661 267.137 111.049L267.043 100.918C244.231 100.465 223.226 111.502 209.283 128.718L216.941 135.33ZM142.996 127.574C170.013 111.843 196.398 116.853 209.147 134.919L217.077 129.129C200.32 105.384 167.715 101.39 137.946 118.724L142.996 127.574ZM103.137 176.882C109.724 157.207 124.006 138.632 142.996 127.574L137.946 118.724C116.87 130.995 101.112 151.493 93.7975 173.342L103.137 176.882ZM36.561 229.28C48.3434 197.397 74.4938 178.569 98.2868 180.168L98.6474 170.056C69.4355 168.094 40.1373 190.777 27.3247 225.447L36.561 229.28ZM46.6842 306.155C30.9841 289.242 25.625 258.873 36.561 229.28L27.3247 225.447C15.3913 257.739 20.6222 292.551 39.6385 313.035L46.6842 306.155ZM36.6588 358.663C33.7765 341.143 38.136 324.504 47.0764 312.792L39.2463 306.398C28.5823 320.368 23.607 339.855 26.9326 360.07L36.6588 358.663ZM90.9598 405.387C66.4899 409.495 41.7083 389.356 36.6588 358.663L26.9326 360.07C32.6895 395.063 61.7197 420.61 92.8235 415.388L90.9598 405.387ZM127.558 343.176C132.615 373.913 115.551 401.258 90.9598 405.387L92.8236 415.388C123.806 410.187 143.034 376.719 137.284 341.769L127.558 343.176ZM113.405 312.417C120.416 320.463 125.562 331.043 127.558 343.176L137.284 341.769C134.977 327.744 128.998 315.338 120.671 305.781L113.405 312.417ZM136.783 270.859C131.538 285.053 123.367 296.775 113.769 305.209L120.306 312.988C131.157 303.453 140.231 290.357 146.02 274.692L136.783 270.859ZM141.811 250.484C140.946 257.223 139.29 264.076 136.783 270.859L146.02 274.692C148.789 267.198 150.628 259.599 151.592 252.093L141.811 250.484ZM173.812 237.027C164.38 242.52 154.94 245.487 146.152 246.239L147.252 256.337C157.578 255.454 168.352 251.998 178.863 245.878L173.812 237.027ZM202.621 209.872C195.201 220.776 185.366 230.3 173.812 237.027L178.863 245.878C191.731 238.385 202.592 227.84 210.76 215.836L202.621 209.872ZM256.088 235.673C236.668 235.288 220.351 225.276 210.804 210.181L202.577 215.527C213.961 233.527 233.404 245.352 256.183 245.804L256.088 235.673ZM294.87 222.537C283.797 231.054 270.267 235.954 256.088 235.673L256.183 245.804C272.718 246.132 288.309 240.417 300.928 230.711L294.87 222.537Z" fill="#763030"/>
<path d="M93.4337 242.702L98.2139 241.921L93.4337 242.702C94.1144 248.121 100.186 249.424 103.334 245.899C107.738 240.969 121.812 225.602 133.116 217.3C144.178 209.175 162.113 200.579 167.866 197.908C172.06 195.961 172.98 189.436 168.482 186.885L166.336 191.019L168.482 186.885C164.936 184.875 156.306 180.429 145.898 178.383C135.519 176.344 122.678 176.571 111.478 184.903C100.28 193.232 95.6242 206.015 93.8112 217.12C91.9933 228.256 92.8991 238.445 93.4337 242.702Z" fill="#FEF9B9" stroke="#763030" stroke-width="10"/>
<path d="M409.318 361.904L404.384 362.039C404.235 366.766 409.526 369.994 413.751 366.536C417.074 363.816 424.768 357.041 431.138 347.711C437.49 338.409 442.945 325.931 440.564 312.197C438.183 298.458 429.007 289.492 420.065 283.864C411.096 278.219 401.762 275.536 397.805 274.568M409.318 361.904L397.805 274.568M409.318 361.904L404.384 362.039C404.592 355.441 404.984 334.65 402.512 320.886C400.092 307.415 393.011 288.894 390.678 283.011C388.974 278.715 392.791 273.342 397.805 274.568M409.318 361.904L397.805 274.568" fill="#FEF9B9" stroke="#763030" stroke-width="10"/>
<path fill-rule="evenodd" clip-rule="evenodd" d="M372.75 429.455C402.701 334.401 374.875 239.119 291.978 204.727C209.082 170.335 114.549 240.717 90.7342 320.025C78.7163 360.046 108.876 400.149 153.572 429.479C85.0986 446.179 11.351 537.374 11.351 537.374L261.544 659.451C261.544 659.451 296.89 535.916 255.606 476.604C253.985 474.276 252.457 472.05 251.01 469.923C307.005 481.639 359.129 472.683 372.75 429.455Z" fill="#FEF9B9"/>
<path d="M291.978 204.727L293.86 200.091L291.978 204.727ZM372.75 429.455L377.501 430.991L372.75 429.455ZM90.7342 320.025L85.963 318.554L90.7342 320.025ZM153.572 429.479L154.766 434.354L165.951 431.626L156.281 425.28L153.572 429.479ZM11.351 537.374L7.48012 534.197L3.50631 539.111L9.19314 541.885L11.351 537.374ZM261.544 659.451L259.386 663.962L264.703 666.557L266.334 660.858L261.544 659.451ZM255.606 476.604L251.528 479.47L251.528 479.47L255.606 476.604ZM251.01 469.923L252.004 465.012L239.922 462.484L246.902 472.744L251.01 469.923ZM290.097 209.363C369.733 242.402 397.48 334.357 367.998 427.919L377.501 430.991C407.922 334.445 380.018 235.835 293.86 200.091L290.097 209.363ZM95.5054 321.496C107.035 283.102 135.806 246.627 171.852 223.998C207.861 201.393 250.521 192.944 290.097 209.363L293.86 200.091C250.54 182.118 204.485 191.665 166.55 215.479C128.652 239.271 98.2489 277.64 85.963 318.554L95.5054 321.496ZM156.281 425.28C134.317 410.868 116.224 393.992 105.107 376.114C94.0343 358.307 90.0159 339.777 95.5054 321.496L85.963 318.554C79.4346 340.295 84.487 361.826 96.664 381.409C108.796 400.919 128.131 418.76 150.863 433.677L156.281 425.28ZM11.351 537.374C15.2219 540.55 15.2217 540.551 15.2217 540.551C15.222 540.55 15.2223 540.55 15.2231 540.549C15.2246 540.547 15.2272 540.544 15.2309 540.539C15.2384 540.53 15.2503 540.516 15.2666 540.495C15.2993 540.455 15.3496 540.394 15.4173 540.311C15.5526 540.146 15.7574 539.896 16.0292 539.568C16.5728 538.912 17.3843 537.941 18.4446 536.696C20.5652 534.204 23.6795 530.616 27.6331 526.253C35.5443 517.522 46.7967 505.713 60.1591 493.395C87.0698 468.587 121.836 442.386 154.766 434.354L152.378 424.603C116.835 433.272 80.4905 461.018 53.409 485.983C39.7753 498.551 28.3112 510.584 20.2549 519.474C16.2248 523.922 13.0425 527.588 10.8627 530.149C9.77261 531.43 8.93287 532.434 8.36275 533.122C8.07768 533.466 7.85999 533.731 7.71209 533.912C7.63813 534.002 7.58163 534.072 7.54287 534.119C7.52349 534.143 7.50854 534.162 7.49807 534.175C7.49284 534.181 7.48872 534.186 7.48574 534.19C7.48423 534.192 7.48282 534.193 7.48208 534.194C7.48096 534.196 7.48012 534.197 11.351 537.374ZM263.702 654.939L13.5089 532.862L9.19314 541.885L259.386 663.962L263.702 654.939ZM251.528 479.47C261.21 493.38 266.57 511.33 269.006 530.801C271.436 550.233 270.912 570.839 269.096 589.765C267.281 608.672 264.19 625.77 261.549 638.148C260.23 644.332 259.025 649.326 258.153 652.766C257.717 654.485 257.364 655.815 257.122 656.71C257.001 657.158 256.908 657.496 256.845 657.72C256.814 657.832 256.791 657.916 256.775 657.97C256.768 657.997 256.762 658.016 256.759 658.028C256.757 658.035 256.756 658.039 256.755 658.041C256.755 658.042 256.755 658.043 256.754 658.043C256.754 658.043 256.755 658.043 261.544 659.451C266.334 660.858 266.334 660.857 266.335 660.855C266.335 660.854 266.336 660.851 266.337 660.849C266.338 660.844 266.34 660.837 266.343 660.828C266.348 660.81 266.355 660.785 266.364 660.752C266.383 660.687 266.409 660.592 266.444 660.469C266.512 660.221 266.612 659.859 266.74 659.387C266.996 658.443 267.362 657.062 267.812 655.287C268.711 651.739 269.946 646.619 271.295 640.296C273.991 627.657 277.156 610.165 279.017 590.774C280.877 571.402 281.448 550.003 278.895 529.591C276.347 509.218 270.643 489.484 259.683 473.739L251.528 479.47ZM246.902 472.744C248.357 474.884 249.896 477.125 251.528 479.47L259.683 473.739C258.075 471.427 256.557 469.217 255.118 467.102L246.902 472.744ZM367.998 427.919C361.805 447.574 346.92 459.631 326.396 465.465C305.702 471.348 279.545 470.775 252.004 465.012L250.016 474.834C278.47 480.787 306.372 481.594 329.144 475.121C352.085 468.599 370.073 454.563 377.501 430.991L367.998 427.919Z" fill="#763030"/>
<path d="M197.066 468.985C197.06 468.979 197.064 468.968 197.072 468.968L227.855 467.735C227.862 467.735 227.867 467.742 227.865 467.749L218.984 490.919C218.982 490.926 218.973 490.927 218.968 490.922L197.066 468.985Z" fill="#763030" stroke="#763030" stroke-width="10.56"/>
<path d="M191.14 466.924C191.149 466.924 191.153 466.913 191.147 466.907L168.926 445.295C168.921 445.29 168.912 445.292 168.909 445.299L160.373 468.601C160.37 468.608 160.375 468.615 160.383 468.615L191.14 466.924Z" fill="#763030" stroke="#763030" stroke-width="10.56"/>
<path d="M247.076 365.373C245.056 362.827 241.782 362.066 238.656 363.202C235.305 364.418 232.685 367.601 232.164 371.43C230.739 381.885 229.253 402.032 238.496 404.354C245.668 406.155 251.65 403.974 257.082 397.577C264.236 389.152 253.05 372.9 247.076 365.373Z" fill="white" stroke="#763030" stroke-width="8.4942"/>
<path d="M222.555 355.384C225.609 354.773 228.587 356.384 230.335 359.361C232.207 362.55 232.355 366.761 230.502 370.048C225.402 379.098 214.553 395.78 205.991 391.369C199.361 387.952 196.021 382.246 195.613 373.641C195.075 362.292 213.463 357.202 222.555 355.384Z" fill="white" stroke="#763030" stroke-width="8.4942"/>
<path d="M232.483 379.449C230.113 381.402 226.492 379.95 225.909 376.813L221.009 350.446C220.417 347.259 223.396 344.731 226.349 345.915L251.165 355.865C254.118 357.05 254.806 361.048 252.399 363.033L232.483 379.449Z" fill="#763030"/>
<ellipse cx="23.1878" cy="20.189" rx="23.1878" ry="20.189" transform="matrix(0.964253 0.266689 -0.219937 0.975212 317.448 407.224)" fill="#FF9800"/>
<ellipse cx="18.5718" cy="24.0206" rx="18.5718" ry="24.0206" transform="matrix(0.907063 0.420674 -0.375763 0.927115 292.227 363.774)" fill="#763030"/>
<path d="M309.011 387.305C307.686 390.576 304.432 392.217 301.744 390.97C299.057 389.724 297.953 386.062 299.278 382.791C300.604 379.521 303.857 377.88 306.545 379.126C309.232 380.373 310.337 384.035 309.011 387.305Z" fill="white"/>
<path d="M328.701 350.18C329.254 347.545 327.757 344.96 325.216 344.355C315.921 342.142 294.459 338.093 283.675 344.769C277.017 348.89 283.083 354.354 284.514 355.518C284.705 355.673 284.879 355.824 285.072 355.978C291.053 360.748 315.975 356.018 324.856 354.137C326.791 353.727 328.284 352.165 328.701 350.18Z" fill="#763030"/>
<ellipse cx="23.2038" cy="20.1744" rx="23.2038" ry="20.1744" transform="matrix(0.969605 0.246645 -0.204417 0.97836 97.1538 328.515)" fill="#FF9800"/>
<ellipse cx="18.5691" cy="24.0237" rx="18.5691" ry="24.0237" transform="matrix(0.928165 0.37217 -0.33117 0.943571 158.509 312.54)" fill="#763030"/>
<path d="M178.601 333.434C177.433 336.763 174.256 338.568 171.506 337.465C168.756 336.363 167.474 332.77 168.643 329.441C169.811 326.112 172.988 324.307 175.737 325.41C178.487 326.513 179.769 330.105 178.601 333.434Z" fill="white"/>
<path d="M174.398 288.134C172.375 289.688 171.81 292.781 173.202 295.194C178.285 304.006 190.67 323.532 202.31 326.805C209.498 328.826 208.683 320.058 208.413 318.083C208.377 317.82 208.35 317.573 208.312 317.31C207.125 309.133 186.892 293.543 179.544 288.122C177.938 286.938 175.924 286.962 174.398 288.134Z" fill="#763030"/>
</g>
<defs>
<clipPath id="clip0_4_5">
<rect width="512" height="512" fill="white"/>
</clipPath>
</defs>
</svg>
